<?xml version="1.0" encoding="UTF-8" standalone="no"?>
<svg
   version="1.0"
   width="400.000000pt"
   height="400.000000pt"
   viewBox="0 0 400.000000 400.000000"
   preserveAspectRatio="xMidYMid meet"
   id="svg138"
   sodipodi:docname="aledade_logo.svg"
   inkscape:version="1.2.1 (9c6d41e4, 2022-07-14)"
   xmlns:inkscape="http://www.inkscape.org/namespaces/inkscape"
   xmlns:sodipodi="http://sodipodi.sourceforge.net/DTD/sodipodi-0.dtd"
   xmlns="http://www.w3.org/2000/svg"
   xmlns:svg="http://www.w3.org/2000/svg">
  <defs
     id="defs142">
    <filter
       style="color-interpolation-filters:sRGB;"
       inkscape:label="Colorize"
       id="filter433"
       x="0"
       y="0"
       width="1"
       height="1">
      <feComposite
         in2="SourceGraphic"
         operator="arithmetic"
         k1="0"
         k2="1"
         result="composite1"
         id="feComposite419" />
      <feColorMatrix
         in="composite1"
         values="1"
         type="saturate"
         result="colormatrix1"
         id="feColorMatrix421" />
      <feFlood
         flood-opacity="1"
         flood-color="rgb(181,62,167)"
         result="flood1"
         id="feFlood423" />
      <feBlend
         in="flood1"
         in2="colormatrix1"
         mode="multiply"
         result="blend1"
         id="feBlend425" />
      <feBlend
         in2="blend1"
         mode="screen"
         result="blend2"
         id="feBlend427" />
      <feColorMatrix
         in="blend2"
         values="1"
         type="saturate"
         result="colormatrix2"
         id="feColorMatrix429" />
      <feComposite
         in="colormatrix2"
         in2="SourceGraphic"
         operator="in"
         k2="1"
         result="fbSourceGraphic"
         id="feComposite431" />
      <feColorMatrix
         result="fbSourceGraphicAlpha"
         in="fbSourceGraphic"
         values="0 0 0 -1 0 0 0 0 -1 0 0 0 0 -1 0 0 0 0 1 0"
         id="feColorMatrix435" />
      <feComposite
         in2="fbSourceGraphic"
         id="feComposite437"
         operator="arithmetic"
         k1="0"
         k2="1"
         result="composite1"
         in="fbSourceGraphic" />
      <feColorMatrix
         id="feColorMatrix439"
         in="composite1"
         values="1"
         type="saturate"
         result="colormatrix1" />
      <feFlood
         id="feFlood441"
         flood-opacity="1"
         flood-color="rgb(181,62,167)"
         result="flood1" />
      <feBlend
         in2="colormatrix1"
         id="feBlend443"
         in="flood1"
         mode="multiply"
         result="blend1" />
      <feBlend
         in2="blend1"
         id="feBlend445"
         mode="screen"
         result="blend2" />
      <feColorMatrix
         id="feColorMatrix447"
         in="blend2"
         values="1"
         type="saturate"
         result="colormatrix2" />
      <feComposite
         in2="fbSourceGraphic"
         id="feComposite449"
         in="colormatrix2"
         operator="in"
         k2="1"
         result="composite2" />
    </filter>
  </defs>
  <sodipodi:namedview
     id="namedview140"
     pagecolor="#ffffff"
     bordercolor="#000000"
     borderopacity="0.25"
     inkscape:showpageshadow="2"
     inkscape:pageopacity="0.0"
     inkscape:pagecheckerboard="0"
     inkscape:deskcolor="#d1d1d1"
     inkscape:document-units="pt"
     showgrid="false"
     inkscape:zoom="0.4425"
     inkscape:cx="30.508475"
     inkscape:cy="266.66667"
     inkscape:window-width="1309"
     inkscape:window-height="456"
     inkscape:window-x="257"
     inkscape:window-y="276"
     inkscape:window-maximized="0"
     inkscape:current-layer="svg138" />
  <g
     transform="translate(0.000000,400.000000) scale(0.100000,-0.100000)"
     fill="#000000"
     stroke="none"
     id="g136"
     style="filter:url(#filter433);fill:#003da5;fill-opacity:1">
    <path
       d="M1854 3939 c-863 -63 -1579 -694 -1760 -1551 -21 -102 -27 -160 -31 -335 l-6 -213 764 0 764 0 20 29 c11 16 67 89 125 162 111 139 201 253 577 732 128 162 246 307 263 321 65 54 155 54 220 0 70 -59 65 16 65 -1054 l0 -965 -125 0 -125 0 -3 288 -2 287 -433 0 -432 0 -220 -276 c-121 -152 -230 -283 -241 -291 -17 -11 -54 -13 -158 -12 -75 1 -136 6 -136 10 0 5 99 134 220 286 l219 278 -661 3 c-364 1 -663 0 -666 -2 -7 -8 47 -208 83 -306 227 -609 746 -1072 1371 -1221 287 -68 647 -66 930 6 673 171 1220 705 1398 1366 55 205 61 257 61 524 -1 233 -3 258 -28 378 -125 588 -483 1063 -1008 1341 -310 164 -687 242 -1045 215z"
       id="path132"
       style="fill:#003da5;fill-opacity:1" />
    <path
       d="M2240 2303 c-195 -245 -356 -449 -358 -454 -2 -5 148 -9 357 -9 l361 0 0 455 c0 250 -1 455 -2 454 -2 0 -163 -201 -358 -446z"
       id="path134"
       style="fill:#003da5;fill-opacity:1" />
  </g>
</svg>
